<mxfile host="65bd71144e">
    <diagram id="2JiUN5cpNEEjUsvchQE8" name="Page-1">
        <mxGraphModel dx="714" dy="343" grid="1" gridSize="10" guides="1" tooltips="1" connect="1" arrows="1" fold="1" page="1" pageScale="1" pageWidth="850" pageHeight="1100" math="0" shadow="0">
            <root>
                <mxCell id="0"/>
                <mxCell id="1" parent="0"/>
                <mxCell id="5" style="edgeStyle=none;html=1;" parent="1" source="2" target="3" edge="1">
                    <mxGeometry relative="1" as="geometry"/>
                </mxCell>
                <mxCell id="6" style="edgeStyle=none;html=1;" parent="1" source="2" target="4" edge="1">
                    <mxGeometry relative="1" as="geometry"/>
                </mxCell>
                <mxCell id="2" value="Root Hash" style="rounded=0;whiteSpace=wrap;html=1;" parent="1" vertex="1">
                    <mxGeometry x="365" y="140" width="120" height="60" as="geometry"/>
                </mxCell>
                <mxCell id="8" style="edgeStyle=none;html=1;" parent="1" source="3" target="7" edge="1">
                    <mxGeometry relative="1" as="geometry"/>
                </mxCell>
                <mxCell id="17" style="edgeStyle=none;html=1;" parent="1" source="3" target="16" edge="1">
                    <mxGeometry relative="1" as="geometry"/>
                </mxCell>
                <mxCell id="3" value="Hash(A,B)" style="rounded=0;whiteSpace=wrap;html=1;" parent="1" vertex="1">
                    <mxGeometry x="220" y="260" width="120" height="60" as="geometry"/>
                </mxCell>
                <mxCell id="10" style="edgeStyle=none;html=1;" parent="1" source="4" target="9" edge="1">
                    <mxGeometry relative="1" as="geometry"/>
                </mxCell>
                <mxCell id="18" style="edgeStyle=none;html=1;" parent="1" source="4" target="15" edge="1">
                    <mxGeometry relative="1" as="geometry"/>
                </mxCell>
                <mxCell id="4" value="Hash(C,D)" style="rounded=0;whiteSpace=wrap;html=1;" parent="1" vertex="1">
                    <mxGeometry x="515" y="260" width="120" height="60" as="geometry"/>
                </mxCell>
                <mxCell id="19" value="" style="edgeStyle=none;html=1;" parent="1" source="7" target="11" edge="1">
                    <mxGeometry relative="1" as="geometry"/>
                </mxCell>
                <mxCell id="7" value="Hash(A)" style="rounded=0;whiteSpace=wrap;html=1;" parent="1" vertex="1">
                    <mxGeometry x="130" y="380" width="120" height="60" as="geometry"/>
                </mxCell>
                <mxCell id="22" value="" style="edgeStyle=none;html=1;" parent="1" source="9" target="14" edge="1">
                    <mxGeometry relative="1" as="geometry"/>
                </mxCell>
                <mxCell id="9" value="Hash(D&lt;span style=&quot;background-color: transparent;&quot;&gt;)&lt;/span&gt;" style="rounded=0;whiteSpace=wrap;html=1;" parent="1" vertex="1">
                    <mxGeometry x="610" y="380" width="120" height="60" as="geometry"/>
                </mxCell>
                <mxCell id="11" value="Account 1" style="rounded=0;whiteSpace=wrap;html=1;" parent="1" vertex="1">
                    <mxGeometry x="155" y="510" width="70" height="60" as="geometry"/>
                </mxCell>
                <mxCell id="12" value="Account 2" style="rounded=0;whiteSpace=wrap;html=1;" parent="1" vertex="1">
                    <mxGeometry x="315" y="510" width="70" height="60" as="geometry"/>
                </mxCell>
                <mxCell id="13" value="Account 3" style="rounded=0;whiteSpace=wrap;html=1;" parent="1" vertex="1">
                    <mxGeometry x="475" y="500" width="70" height="60" as="geometry"/>
                </mxCell>
                <mxCell id="14" value="Account 4" style="rounded=0;whiteSpace=wrap;html=1;" parent="1" vertex="1">
                    <mxGeometry x="635" y="500" width="70" height="60" as="geometry"/>
                </mxCell>
                <mxCell id="21" value="" style="edgeStyle=none;html=1;" parent="1" source="15" target="13" edge="1">
                    <mxGeometry relative="1" as="geometry"/>
                </mxCell>
                <mxCell id="15" value="Hash(C&lt;span style=&quot;background-color: transparent;&quot;&gt;)&lt;/span&gt;" style="rounded=0;whiteSpace=wrap;html=1;" parent="1" vertex="1">
                    <mxGeometry x="450" y="380" width="120" height="60" as="geometry"/>
                </mxCell>
                <mxCell id="20" value="" style="edgeStyle=none;html=1;" parent="1" source="16" target="12" edge="1">
                    <mxGeometry relative="1" as="geometry"/>
                </mxCell>
                <mxCell id="16" value="Hash(B)" style="rounded=0;whiteSpace=wrap;html=1;" parent="1" vertex="1">
                    <mxGeometry x="290" y="380" width="120" height="60" as="geometry"/>
                </mxCell>
                <mxCell id="23" value="&lt;font face=&quot;Courier New&quot;&gt;// The entire L2 state&lt;/font&gt;&lt;div&gt;&lt;font face=&quot;Courier New&quot;&gt;{&lt;/font&gt;&lt;/div&gt;&lt;span style=&quot;font-family: &amp;quot;Courier New&amp;quot;; background-color: light-dark(#ffffff, var(--ge-dark-color, #121212));&quot;&gt;&lt;font style=&quot;color: rgb(255, 0, 0);&quot;&gt;&amp;nbsp; &quot;0x1234...&quot;: {balance: 100, nonce: 5},&lt;/font&gt;&lt;/span&gt;&lt;div&gt;&lt;span style=&quot;color: rgb(63, 63, 63); font-family: &amp;quot;Courier New&amp;quot;;&quot;&gt;&amp;nbsp; &quot;0x5678...&quot;: {balance: 50, nonce: 2},&lt;/span&gt;&lt;/div&gt;&lt;div&gt;&lt;span style=&quot;color: rgb(63, 63, 63); font-family: &amp;quot;Courier New&amp;quot;; background-color: transparent;&quot;&gt;&amp;nbsp; &quot;0x9abc...&quot;: {balance: 200, nonce: 0}&lt;/span&gt;&lt;/div&gt;&lt;div&gt;&lt;font face=&quot;Courier New&quot;&gt;}&lt;/font&gt;&lt;/div&gt;" style="text;html=1;whiteSpace=wrap;overflow=hidden;rounded=0;strokeColor=default;fontSize=14;fontStyle=1" parent="1" vertex="1">
                    <mxGeometry x="270" y="640" width="360" height="120" as="geometry"/>
                </mxCell>
                <mxCell id="24" value="&lt;font face=&quot;Courier New&quot;&gt;// to prove account 2 had balance = 50&lt;/font&gt;&lt;div&gt;&lt;font face=&quot;Courier New&quot;&gt;proof = [Hash(A), Hash(C,D)]&lt;/font&gt;&lt;/div&gt;&lt;div&gt;&lt;font face=&quot;Courier New&quot;&gt;&lt;br&gt;&lt;/font&gt;&lt;/div&gt;&lt;div&gt;&lt;font face=&quot;Courier New&quot;&gt;// Verification&lt;/font&gt;&lt;/div&gt;&lt;div&gt;&lt;font face=&quot;Courier New&quot;&gt;Hash(Hash(A) + Hash(Account2)) == Hash(A,B)&amp;nbsp;&lt;/font&gt;&lt;span style=&quot;background-color: transparent;&quot;&gt;&lt;font face=&quot;Courier New&quot;&gt;&lt;span&gt;✓&lt;/span&gt;&lt;/font&gt;&lt;/span&gt;&lt;/div&gt;&lt;div&gt;&lt;font face=&quot;Courier New&quot;&gt;Hash(Hash(A,B) + Hash(C,D)) == Root Hash&amp;nbsp; &amp;nbsp;&amp;nbsp;&lt;span style=&quot;background-color: transparent;&quot;&gt;&lt;span&gt;&lt;font&gt;✓&lt;/font&gt;&lt;/span&gt;&lt;/span&gt;&lt;/font&gt;&lt;/div&gt;" style="text;html=1;whiteSpace=wrap;overflow=hidden;rounded=0;strokeColor=default;fontSize=14;fontStyle=1" parent="1" vertex="1">
                    <mxGeometry x="250" y="780" width="400" height="120" as="geometry"/>
                </mxCell>
                <mxCell id="26" style="edgeStyle=none;html=1;" parent="1" source="25" edge="1">
                    <mxGeometry relative="1" as="geometry">
                        <mxPoint x="260" y="690" as="targetPoint"/>
                    </mxGeometry>
                </mxCell>
                <mxCell id="25" value="state root" style="text;html=1;align=center;verticalAlign=middle;resizable=0;points=[];autosize=1;strokeColor=none;fillColor=none;fontColor=#FF0000;" parent="1" vertex="1">
                    <mxGeometry x="150" y="675" width="70" height="30" as="geometry"/>
                </mxCell>
            </root>
        </mxGraphModel>
    </diagram>
    <diagram id="K5oFoEe8h99w1bt7cuqd" name="Page-2">
        <mxGraphModel dx="893" dy="588" grid="1" gridSize="10" guides="1" tooltips="1" connect="1" arrows="1" fold="1" page="1" pageScale="1" pageWidth="850" pageHeight="1100" math="0" shadow="0">
            <root>
                <mxCell id="0"/>
                <mxCell id="1" parent="0"/>
                <mxCell id="9mQTkNKNau3hzA_RPVSs-31" value="Deposits" style="edgeStyle=none;html=1;entryX=0;entryY=0.5;entryDx=0;entryDy=0;fontStyle=1" edge="1" parent="1" source="9mQTkNKNau3hzA_RPVSs-4" target="9mQTkNKNau3hzA_RPVSs-11">
                    <mxGeometry x="-0.5937" y="-2" relative="1" as="geometry">
                        <mxPoint as="offset"/>
                    </mxGeometry>
                </mxCell>
                <mxCell id="9mQTkNKNau3hzA_RPVSs-4" value="Users" style="swimlane;startSize=0;verticalAlign=top;fontStyle=1" vertex="1" parent="1">
                    <mxGeometry x="20" y="50" width="280" height="220" as="geometry"/>
                </mxCell>
                <mxCell id="9mQTkNKNau3hzA_RPVSs-1" value="" style="shape=actor;whiteSpace=wrap;html=1;fontStyle=1" vertex="1" parent="9mQTkNKNau3hzA_RPVSs-4">
                    <mxGeometry x="60" y="50" width="40" height="60" as="geometry"/>
                </mxCell>
                <mxCell id="9mQTkNKNau3hzA_RPVSs-2" value="" style="shape=actor;whiteSpace=wrap;html=1;fontStyle=1" vertex="1" parent="9mQTkNKNau3hzA_RPVSs-4">
                    <mxGeometry x="180" y="50" width="40" height="60" as="geometry"/>
                </mxCell>
                <mxCell id="9mQTkNKNau3hzA_RPVSs-3" value="" style="shape=actor;whiteSpace=wrap;html=1;fontStyle=1" vertex="1" parent="9mQTkNKNau3hzA_RPVSs-4">
                    <mxGeometry x="120" y="140" width="40" height="60" as="geometry"/>
                </mxCell>
                <mxCell id="9mQTkNKNau3hzA_RPVSs-5" value="L2 State (off-chain)" style="swimlane;startSize=0;verticalAlign=top;fontStyle=1" vertex="1" parent="1">
                    <mxGeometry x="515" y="410" width="200" height="200" as="geometry"/>
                </mxCell>
                <mxCell id="9mQTkNKNau3hzA_RPVSs-8" value="&lt;div&gt;&lt;br&gt;&lt;/div&gt;{&lt;div&gt;&amp;nbsp;{user: X ETH, nonce: Y},&lt;/div&gt;&lt;div&gt;...&lt;/div&gt;&lt;div&gt;}&lt;/div&gt;" style="strokeWidth=2;html=1;shape=mxgraph.flowchart.database;whiteSpace=wrap;align=left;verticalAlign=middle;fontFamily=Courier New;fontSize=10;fillColor=#dae8fc;strokeColor=#6c8ebf;fontStyle=1" vertex="1" parent="9mQTkNKNau3hzA_RPVSs-5">
                    <mxGeometry x="20" y="60" width="160" height="120" as="geometry"/>
                </mxCell>
                <mxCell id="9mQTkNKNau3hzA_RPVSs-9" value="L1 Ethereum" style="swimlane;startSize=0;verticalAlign=top;fontStyle=1" vertex="1" parent="1">
                    <mxGeometry x="425" y="80" width="380" height="240" as="geometry"/>
                </mxCell>
                <mxCell id="9mQTkNKNau3hzA_RPVSs-11" value="OptimisticRollup Contract" style="rounded=0;whiteSpace=wrap;html=1;fillColor=#dae8fc;strokeColor=#6c8ebf;fontStyle=1" vertex="1" parent="9mQTkNKNau3hzA_RPVSs-9">
                    <mxGeometry x="130" y="50" width="120" height="60" as="geometry"/>
                </mxCell>
                <mxCell id="9mQTkNKNau3hzA_RPVSs-12" value="&lt;div&gt;&lt;br&gt;&lt;/div&gt;State Root: 0xabc..&lt;div&gt;TVL: X ETH&lt;/div&gt;&lt;div&gt;Block: #0&lt;/div&gt;" style="strokeWidth=2;html=1;shape=mxgraph.flowchart.database;whiteSpace=wrap;align=left;verticalAlign=middle;fontFamily=Courier New;fontSize=10;fillColor=#dae8fc;strokeColor=#6c8ebf;fontStyle=1" vertex="1" parent="9mQTkNKNau3hzA_RPVSs-9">
                    <mxGeometry x="230" y="140" width="120" height="80" as="geometry"/>
                </mxCell>
                <mxCell id="9mQTkNKNau3hzA_RPVSs-13" style="edgeStyle=none;html=1;entryX=0.5;entryY=0;entryDx=0;entryDy=0;entryPerimeter=0;fontStyle=1" edge="1" parent="9mQTkNKNau3hzA_RPVSs-9" source="9mQTkNKNau3hzA_RPVSs-11" target="9mQTkNKNau3hzA_RPVSs-12">
                    <mxGeometry relative="1" as="geometry"/>
                </mxCell>
                <mxCell id="9mQTkNKNau3hzA_RPVSs-14" value="Off chain Operator" style="swimlane;startSize=0;verticalAlign=top;fontStyle=1" vertex="1" parent="1">
                    <mxGeometry x="110" y="450" width="330" height="140" as="geometry"/>
                </mxCell>
                <mxCell id="9mQTkNKNau3hzA_RPVSs-24" value="" style="edgeStyle=none;html=1;fontStyle=1" edge="1" parent="9mQTkNKNau3hzA_RPVSs-14" source="9mQTkNKNau3hzA_RPVSs-16" target="9mQTkNKNau3hzA_RPVSs-19">
                    <mxGeometry relative="1" as="geometry"/>
                </mxCell>
                <mxCell id="9mQTkNKNau3hzA_RPVSs-16" value="Tx pool" style="rounded=0;whiteSpace=wrap;html=1;fillColor=#fff2cc;strokeColor=#d6b656;fontStyle=1" vertex="1" parent="9mQTkNKNau3hzA_RPVSs-14">
                    <mxGeometry x="20" y="60" width="120" height="30" as="geometry"/>
                </mxCell>
                <mxCell id="9mQTkNKNau3hzA_RPVSs-19" value="Batch Processor&lt;div&gt;(execute/create MT)&lt;/div&gt;" style="rounded=0;whiteSpace=wrap;html=1;fillColor=#fff2cc;strokeColor=#d6b656;fontStyle=1" vertex="1" parent="9mQTkNKNau3hzA_RPVSs-14">
                    <mxGeometry x="180" y="60" width="120" height="30" as="geometry"/>
                </mxCell>
                <mxCell id="9mQTkNKNau3hzA_RPVSs-22" style="edgeStyle=none;html=1;entryX=0.5;entryY=1;entryDx=0;entryDy=0;fontStyle=1" edge="1" parent="1" source="9mQTkNKNau3hzA_RPVSs-19" target="9mQTkNKNau3hzA_RPVSs-11">
                    <mxGeometry relative="1" as="geometry"/>
                </mxCell>
                <mxCell id="9mQTkNKNau3hzA_RPVSs-25" value="Send Transactions" style="edgeStyle=none;html=1;entryX=0.25;entryY=0;entryDx=0;entryDy=0;exitX=0.5;exitY=1;exitDx=0;exitDy=0;fontStyle=1" edge="1" parent="1" source="9mQTkNKNau3hzA_RPVSs-4" target="9mQTkNKNau3hzA_RPVSs-16">
                    <mxGeometry x="-0.2184" y="4" relative="1" as="geometry">
                        <mxPoint y="-1" as="offset"/>
                    </mxGeometry>
                </mxCell>
                <mxCell id="9mQTkNKNau3hzA_RPVSs-27" style="edgeStyle=none;html=1;fontStyle=1" edge="1" parent="1" source="9mQTkNKNau3hzA_RPVSs-11" target="9mQTkNKNau3hzA_RPVSs-8">
                    <mxGeometry relative="1" as="geometry"/>
                </mxCell>
                <mxCell id="9mQTkNKNau3hzA_RPVSs-29" style="edgeStyle=none;html=1;fontStyle=1" edge="1" parent="1" source="9mQTkNKNau3hzA_RPVSs-28" target="9mQTkNKNau3hzA_RPVSs-11">
                    <mxGeometry relative="1" as="geometry"/>
                </mxCell>
                <mxCell id="9mQTkNKNau3hzA_RPVSs-28" value="Challenger" style="rounded=0;whiteSpace=wrap;html=1;fillColor=#d5e8d4;strokeColor=#82b366;fontStyle=1" vertex="1" parent="1">
                    <mxGeometry x="555" y="20" width="120" height="30" as="geometry"/>
                </mxCell>
            </root>
        </mxGraphModel>
    </diagram>
</mxfile>